<?xml version="1.0" encoding="UTF-8"?>
<svg version="1.1" viewBox="-126 -126 252 252" xmlns="http://www.w3.org/2000/svg">
    <path
        d="m7.654e-15 -125 21.948 14.662 25.888-5.1466 14.666 21.945 25.887 5.152 5.152 25.887 21.945 14.666-5.1466 25.888 14.662 21.948-14.662 21.948 5.1466 25.888-21.945 14.666-5.152 25.887-25.887 5.152-14.666 21.945-25.888-5.1466-21.948 14.662-21.948-14.662-25.888 5.1466-14.666-21.945-25.887-5.152-5.152-25.887-21.945-14.666 5.1466-25.888-14.662-21.948 14.662-21.948-5.1466-25.888 21.945-14.666 5.152-25.887 25.887-5.152 14.666-21.945 25.888 5.1466z" 
        fill="#fb0" 
        stroke="#e4a91a"
    />
</svg>
