<?xml version="1.0" encoding="UTF-8"?>
<svg viewBox="0 0 1275.8 813.46" xmlns="http://www.w3.org/2000/svg">
 <g transform="matrix(.1 0 0 -.1 -2.1603 815.57)" fill="currentColor">
  <path d="m1935 8154c-903-53-1172-130-1475-419-47-44-119-109-162-143-93-75-171-161-218-238-57-95-54-197 10-344l28-65 14-415c7-244 13-775 13-1290 0-892-3-971-40-1187-45-258-88-801-83-1047l3-172 73-146 74-145-1-262c-1-153 2-261 7-261 6 0 17 12 27 26 17 27 70 54 104 54 11 0 28-14 41-36 12-19 24-33 27-31 11 12 20 321 11 405l-10 94 41 88c22 48 55 129 72 181 38 113 42 56-56 744l-74 520 2 703c1 387 5 689 9 670 4-18 33-172 64-343 31-170 82-413 115-540 123-485 172-835 149-1073-19-204-96-574-149-712-11-30-36-80-56-110s-35-67-35-84c0-16 20-66 45-111 92-169 101-213 175-800 11-93 38-285 60-425 21-140 41-293 45-340 3-47 12-128 20-180 20-129 19-165-7-209l-22-38 28-79c17-46 30-106 32-143l3-64 68 2c148 4 467 22 471 26 2 2-5 59-16 127-12 68-24 144-27 169s-15 69-25 98c-40 104-110 503-110 624 0 78 27 239 74 442 34 147 49 243 81 493 14 112 66 292 103 357 7 14 28-9 110-117 122-162 236-332 293-436 23-42 139-246 258-452 118-206 256-456 306-555 99-193 124-272 161-505 9-58 20-108 23-111 3-4 147-9 320-12l314-6-6 172c-6 171-6 172-41 242-19 38-108 180-196 315-242 368-348 564-415 770-24 72-29 107-33 225-6 214 32 459 91 590 13 28 70 107 126 175 56 69 128 164 159 212 46 69 63 87 87 92 71 14 152 65 250 155l99 92 65-6c152-16 256-49 299-96 11-11 34-60 51-107 53-148 115-199 255-209 140-11 292 40 394 132 47 42 54 45 106 45 31 0 100 11 153 25 115 30 172 33 352 15 243-23 469 2 754 85 186 54 278 68 368 55 163-23 290-97 635-371 217-172 277-218 365-279l71-49 6-203c8-298 7-320-22-471-14-76-26-153-26-172s17-67 40-112l39-78 16-216c19-274 19-351-1-447-18-88-14-154 11-183 18-19 17-25-28-193-26-95-47-180-47-189 0-56 220-124 319-97 55 14 65 39 93 214 18 111 26 136 49 163 32 37 51 91 53 147 0 23-5 129-13 236-14 210-6 368 23 465 9 28 45 97 81 154 78 126 101 184 114 293 17 135 73 385 82 362 4-10 26-66 49-123 49-126 89-193 173-291 35-41 74-94 86-118 12-23 55-159 96-301s79-270 85-286c24-64 130-510 148-629 6-35 6-74 0-99-6-30-5-52 6-85 13-37 14-61 5-144-10-89-9-101 6-118 20-22 84-44 169-59 79-14 282-13 325 2 44 15 50 38 54 177 2 104 2 106-39 195-43 94-78 208-163 530-57 221-64 255-91 464-28 226-39 345-50 532-10 182-9 178-105 412-31 76-55 140-53 142s33 0 68-5c152-22 256-7 387 56 91 44 128 80 143 142l11 49 69-5c64-4 71-3 112 26 39 28 55 32 159 42 168 16 214 6 336-71 211-134 369-268 439-374 44-66 68-138 104-312 17-79 36-158 44-176 22-53 91-121 214-213 64-48 151-113 192-144 50-37 112-100 188-190 183-219 296-324 463-427 81-51 281-151 374-188 39-15 114-50 168-76 108-55 197-82 236-72 14 3 55 25 91 48s100 61 143 85c85 46 117 83 117 137 0 17-64 346-142 730-138 677-142 701-138 798 11 260 15 238-97 585-126 391-123 378-123 476 0 45-4 106-10 135-26 140-69 171-243 177-100 4-111 2-161-22-29-14-61-26-71-26s-79 30-153 67l-134 67-72 95c-40 53-177 245-306 426-334 472-404 564-620 810-387 442-451 534-638 925-118 247-171 380-197 501-32 144-57 196-141 293-38 44-89 107-114 140-53 71-186 185-367 314-167 119-308 199-468 265-71 30-167 77-213 105-95 58-218 111-325 141-131 37-916 163-1400 226-565 72-761 73-1091 2-139-29-165-32-326-31-100 0-235 8-315 18-223 28-599 32-930 10-154-10-388-18-520-18-266 0-303 4-740 81-254 45-265 46-495 48-129 1-262 1-295-1z"/>
 </g>
</svg>
