<?xml version="1.0" encoding="UTF-8"?>
<svg viewBox="0 0 1217 1279.8" xmlns="http://www.w3.org/2000/svg">
 <g transform="matrix(.1 0 0 -.1 0 1279.8)" fill="currentColor">
  <path d="m1841 12789c-225-17-489-67-631-118-243-89-426-282-499-527-101-340 14-748 317-1129 83-104 283-301 397-391 554-438 1273-735 2195-908 503-95 1241-155 1438-117 91 17 195 54 260 93 92 54 202 171 249 265l40 80 43-50c117-135 333-214 511-186 142 22 277 92 359 186l43 50 40-80c30-60 60-100 116-156 158-157 320-215 601-213 545 3 1312 117 1870 277 756 217 1361 544 1776 959 215 216 350 409 437 626 183 458 84 888-259 1127-97 68-236 120-424 157-923 185-1919-39-2810-629-567-376-1024-855-1245-1306l-62-127-47 64c-162 219-463 296-713 183-87-39-174-108-229-183l-47-64-62 127c-221 451-677 930-1245 1306-758 503-1617 746-2419 684zm667-818c346-60 657-164 968-326 468-243 890-587 1161-947 85-113 192-302 179-315-5-5-270 13-466 32-1118 109-2072 465-2576 962-185 181-312 396-302 510 3 34 6 38 46 50 47 13 199 40 307 53 39 5 180 7 315 5 193-2 271-7 368-24zm7945 5c59-10 137-25 175-34 64-16 67-18 70-50 11-115-115-332-302-515-504-497-1458-853-2576-962-196-19-461-37-466-32-7 7 24 73 72 154 190 323 577 694 998 955 448 279 930 451 1401 501 100 11 524-1 628-17z"/>
  <path d="m0 8315v-1155h5620v2310h-5620z"/>
  <path d="m6550 8315v-1155h5620v2310h-5620z"/>
  <path d="m570 3485v-3485h5050v6970h-5050z"/>
  <path d="m6550 3485v-3485h5050v6970h-5050z"/>
 </g>
</svg>
