<?xml version="1.0" encoding="UTF-8"?>
<svg viewBox="0 0 1031.5 1280" xmlns="http://www.w3.org/2000/svg">
 <g transform="matrix(.1 0 0 -.1 -.57071 1280)" fill="currentColor">
  <path d="m4941 12789c-512-54-1019-309-1401-705-455-472-726-1085-790-1784-24-268-9-346 74-395 49-29 121-33 165-11 42 22 89 81 95 118 3 18 8 89 11 158 26 560 222 1094 550 1505 75 95 243 263 335 338 457 368 1021 510 1565 392 938-203 1644-1135 1691-2230 7-158 15-198 53-239 80-87 222-70 280 35 23 41 24 46 18 208-38 1035-619 1981-1472 2396-374 182-775 255-1174 214z"/>
  <path d="m326 11063c-4-93-65-2040-136-4328-72-2288-144-4601-161-5140-35-1100-36-1062 35-1212 69-144 175-250 318-318 147-70-266-65 4783-65s4636-5 4783 65c143 68 249 174 318 318 74 156 74-40-5 2497-39 1246-103 3268-141 4495-39 1227-81 2583-95 3015s-25 797-25 813v27h-1290c-1251 0-1290-1-1281-18 24-44 105-298 137-427 19-77 44-207 56-289l22-150 72-70c86-85 115-150 122-267 12-215-131-392-347-430-170-30-362 74-439 238-24 52-27 69-27 168 0 98 3 116 27 167 14 31 45 76 67 101 49 53 50 64 21 231-39 226-109 457-197 646l-46 100h-3464l-36-77c-111-240-198-547-223-784-6-65-6-65 30-105 20-21 51-68 69-104 30-61 32-71 32-175 0-99-3-116-27-168-35-74-113-156-186-195-206-109-454-27-559 184-84 171-45 359 102 492l52 47 18 120c37 265 96 488 194 738l11 27h-2577z"/>
 </g>
</svg>
